# xmcd CD database file
#
# Track frame offsets:
#	150
#	20895
#	39775
#
# Disc length: 806 seconds
#
# Revision: 0
# Processed by: cddbd v1.5.1PL0 Copyright (c) Steve Scherf et al.
# Submitted via: CDex 1.51
#
DISCID=1b032403
DTITLE=FEEL - Love illusion
DYEAR=1998
DGENRE=JPop
TTITLE0=Love illusion
TTITLE1=Message!?
TTITLE2=Love illusion [off vocal version]
EXTD=YEAR: 1998
EXTT0=
EXTT1=
EXTT2=
PLAYORDER=
